<?xml version="1.0" encoding="utf-8"?>
<!-- Svg Vector Icons : http://www.onlinewebfonts.com/icon -->
<!DOCTYPE svg PUBLIC "-//W3C//DTD SVG 1.1//EN" "http://www.w3.org/Graphics/SVG/1.1/DTD/svg11.dtd">
<svg version="1.1" xmlns="http://www.w3.org/2000/svg" xmlns:xlink="http://www.w3.org/1999/xlink" x="0px" y="0px" viewBox="0 0 256 256" enable-background="new 0 0 256 256" xml:space="preserve">
<metadata> Svg Vector Icons : http://www.onlinewebfonts.com/icon </metadata>
<g><g><g><path fill="#000000" id="Squarespace" d="M49.1,118.3L120,47c17.8-17.9,46.6-17.9,64.4,0c4.3,4.5,4.1,11.8-0.3,16.2c-4.5,4.5-11.7,4.5-16.1,0l-1.1-1.3c-8.9-7.6-22.4-7.2-30.8,1.3l-72.5,72.8c-4.8,4.4-12,4.4-16.4,0c-4.5-4.5-4.5-11.7,0-16.2C47.8,119.3,48.4,118.8,49.1,118.3z M208.2,119.9c-4.5-4.5-11.7-4.5-16.1,0c-0.6,0.6-1.1,1.3-1.5,1.9l-70.6,71c-8.9,8.9-23.3,8.9-32.2,0l-0.3,0c-4.4-4.5-11.7-4.5-16.1,0c-4.5,4.5-4.5,11.7,0,16.2c0.6,0.6,1.2,1.1,1.8,1.5c17.9,16.4,45.6,15.9,62.9-1.4l72.1-72.9C212.6,131.6,212.6,124.3,208.2,119.9z M97.4,166.9c-0.7,0.4-1.3,1-1.9,1.5c-4.5,4.5-4.5,11.7,0,16.2c4.5,4.5,11.7,4.5,16.4,0l72.4-72.9c8.9-8.9,23.3-8.9,32.2,0c8.9,9,8.9,23.5,0,32.4l-68.7,69.5c8.9,8.9,23.3,8.9,32.2,0l52.6-53.2c17.8-17.9,17.8-46.9,0-64.8c-17.8-17.9-46.6-17.9-64.4,0L97.4,166.9z M87.7,160.4l72.2-72.9c4.5-4.5,4.5-11.7,0-16.2c-4.4-4.5-11.7-4.5-16.1,0c-0.6,0.6-1.1,1.3-1.5,1.9l-70.6,71c-8.9,9-23.3,9-32.2,0c-8.9-8.9-8.9-23.5,0-32.4l68.7-69.4c-8.9-9-23.3-9-32.2,0L23.3,95.6c-17.8,17.9-17.8,46.9,0,64.8C41.1,178.3,70,178.3,87.7,160.4z"/></g><g></g><g></g><g></g><g></g><g></g><g></g><g></g><g></g><g></g><g></g><g></g><g></g><g></g><g></g><g></g></g></g>
</svg>